<svg width="199" height="148" viewBox="0 0 199 148" fill="none" xmlns="http://www.w3.org/2000/svg">
<g clip-path="url(#clip0)">
<path opacity="0.1" d="M20.0178 14.8204C18.7792 15.3339 17.5081 15.9932 16.8275 17.1488C16.1066 18.3695 16.1928 19.8853 16.3271 21.2977C17.4966 33.5472 20.5776 46.5748 15.2572 57.6706C12.6747 63.0537 8.35509 67.3675 4.91936 72.2561C1.48363 77.1448 -1.11042 83.2485 0.484739 88.9995C2.43267 96.0269 9.70292 99.9229 14.6034 105.331C17.811 108.867 20.06 113.163 23.0528 116.883C26.0456 120.603 30.1467 123.88 34.9245 124.098C41.7959 124.414 47.3867 118.483 54.1239 117.109C61.026 115.702 67.9761 119.282 73.5726 123.567C79.1691 127.852 84.2594 133.044 90.78 135.719C97.9812 138.676 106.099 138.224 113.68 140C120.582 141.619 126.936 145.063 133.788 146.899C140.64 148.735 148.672 148.624 153.981 143.934C160.9 137.802 160.355 126.879 164.775 118.767C168.88 111.23 176.915 106.73 182.323 100.067C192.055 88.0739 191.737 69.7438 183.474 56.7009C175.21 43.658 160.242 35.7606 144.937 33.7043C138.035 32.7787 130.927 32.9052 124.292 30.7991C106.53 25.165 95.9604 4.97784 77.827 0.777137C66.3004 -1.88855 55.0902 2.72801 45.2719 8.41007C36.7497 13.3428 28.887 11.1428 20.0178 14.8204Z" fill="#34495E"/>
<path d="M37.3252 54.3926C37.3252 54.3926 30.7816 60.5652 23.7587 60.7492C20.8096 60.8079 17.9591 61.8213 15.6353 63.6372C14.5368 64.5051 13.5203 65.4718 12.5983 66.5252" stroke="#535461" stroke-width="2" stroke-miterlimit="10"/>
<path d="M8.16944 66.6766C9.11274 66.1975 12.7133 66.5156 12.7133 66.5156C12.7133 66.5156 10.8459 69.6105 9.90265 70.0896C9.67673 70.2235 9.42572 70.3095 9.16516 70.3424C8.90461 70.3753 8.64007 70.3543 8.38796 70.2808C8.13585 70.2073 7.90153 70.0828 7.69955 69.915C7.49757 69.7472 7.33223 69.5398 7.21378 69.3055C7.09534 69.0712 7.0263 68.8151 7.01097 68.553C6.99564 68.291 7.03434 68.0285 7.12467 67.7821C7.21499 67.5356 7.35501 67.3102 7.53605 67.1201C7.71709 66.9299 7.93529 66.779 8.17711 66.6766H8.16944Z" fill="#34495E"/>
<path d="M11.9599 61.2053C13.0124 61.3164 15.8615 63.5395 15.8615 63.5395C15.8615 63.5395 12.6022 65.1224 11.5592 65.0131C11.0712 64.9394 10.6304 64.6805 10.3286 64.2902C10.0268 63.9 9.88722 63.4084 9.93885 62.9178C9.99047 62.4272 10.2294 61.9754 10.6058 61.6565C10.9822 61.3375 11.4672 61.1759 11.9599 61.2053Z" fill="#34495E"/>
<path d="M20.948 56.7957C21.7992 57.4224 23.1375 60.7799 23.1375 60.7799C23.1375 60.7799 19.5311 60.5058 18.6799 59.8811C18.2962 59.5712 18.0467 59.1255 17.9834 58.6365C17.92 58.1476 18.0477 57.653 18.3397 57.2557C18.6318 56.8584 19.0659 56.5889 19.5516 56.5032C20.0374 56.4175 20.5375 56.5223 20.948 56.7957Z" fill="#34495E"/>
<path d="M28.5001 54.9924C29.4453 55.4657 31.3319 58.5492 31.3319 58.5492C31.3319 58.5492 27.7312 58.8884 26.786 58.415C26.5475 58.311 26.3328 58.1594 26.1547 57.9697C25.9767 57.78 25.8392 57.556 25.7506 57.3114C25.662 57.0669 25.6241 56.8068 25.6393 56.5471C25.6544 56.2875 25.7223 56.0336 25.8388 55.801C25.9553 55.5684 26.1179 55.3619 26.3168 55.1942C26.5157 55.0264 26.7467 54.9009 26.9956 54.8253C27.2446 54.7496 27.5064 54.7254 27.7651 54.7542C28.0237 54.7829 28.2738 54.864 28.5001 54.9924Z" fill="#34495E"/>
<path d="M17.865 67.0292C18.1794 66.0193 17.2592 62.5238 17.2592 62.5238C17.2592 62.5238 14.5213 64.8848 14.2069 65.8947C14.1183 66.1384 14.0801 66.3976 14.0947 66.6566C14.1092 66.9155 14.1762 67.1688 14.2915 67.4011C14.4069 67.6334 14.5682 67.8399 14.7658 68.0081C14.9633 68.1762 15.1929 68.3026 15.4407 68.3794C15.6886 68.4563 15.9494 68.482 16.2075 68.4552C16.4655 68.4283 16.7155 68.3494 16.9421 68.2231C17.1688 68.0969 17.3674 67.926 17.5261 67.7208C17.6847 67.5155 17.8 67.2803 17.865 67.0292Z" fill="#34495E"/>
<path d="M26.671 64.8004C26.671 63.7426 24.7442 60.684 24.7442 60.684C24.7442 60.684 22.8384 63.7503 22.8403 64.8119C22.8418 65.3202 23.0453 65.807 23.4059 66.1653C23.7666 66.5236 24.2548 66.7241 24.7633 66.7226C25.2718 66.721 25.7589 66.5177 26.1174 66.1572C26.4758 65.7967 26.6764 65.3087 26.6748 64.8004H26.671Z" fill="#34495E"/>
<path d="M34.9325 61.4736C35.1089 60.4311 33.7284 57.0908 33.7284 57.0908C33.7284 57.0908 31.3299 59.7968 31.1555 60.8393C31.0965 61.3284 31.2283 61.8213 31.5234 62.2159C31.8186 62.6104 32.2544 62.8762 32.7404 62.9581C33.2264 63.04 33.7252 62.9316 34.1334 62.6555C34.5416 62.3795 34.8278 61.9569 34.9325 61.4755V61.4736Z" fill="#34495E"/>
<path d="M45.8282 38.0459C45.8282 38.0459 37.9464 33.7187 35.6035 27.0899C34.641 24.3025 32.7996 21.9025 30.356 20.2504C29.1899 19.4748 27.9551 18.8076 26.6672 18.2573" stroke="#535461" stroke-width="2" stroke-miterlimit="10"/>
<path d="M25.1717 14.0892C25.9175 14.8385 26.7208 18.3627 26.7208 18.3627C26.7208 18.3627 23.2007 17.5387 22.4549 16.7875C22.1256 16.4219 21.9495 15.9437 21.9632 15.4519C21.9768 14.9602 22.1792 14.4925 22.5283 14.1457C22.8774 13.799 23.3466 13.5997 23.8387 13.5892C24.3308 13.5787 24.808 13.7577 25.1717 14.0892Z" fill="#34495E"/>
<path d="M31.5466 16.0113C31.7652 17.0462 30.5247 20.4401 30.5247 20.4401C30.5247 20.4401 28.0188 17.8357 27.8003 16.799C27.7354 16.5482 27.722 16.287 27.761 16.0309C27.8 15.7749 27.8904 15.5294 28.027 15.3093C28.1635 15.0892 28.3433 14.899 28.5554 14.7503C28.7675 14.6016 29.0076 14.4973 29.2611 14.4439C29.5146 14.3905 29.7764 14.3891 30.0305 14.4396C30.2846 14.4901 30.5258 14.5916 30.7396 14.7379C30.9534 14.8842 31.1353 15.0723 31.2743 15.2909C31.4134 15.5094 31.5066 15.7538 31.5485 16.0094L31.5466 16.0113Z" fill="#34495E"/>
<path d="M38.5062 23.215C38.1726 24.2173 35.3869 26.5227 35.3869 26.5227C35.3869 26.5227 34.5394 23.01 34.873 22.0058C35.0335 21.5229 35.3792 21.1236 35.8342 20.8955C36.2892 20.6675 36.8163 20.6295 37.2993 20.7898C37.7824 20.9502 38.1819 21.2958 38.4101 21.7506C38.6382 22.2054 38.6763 22.7322 38.5158 23.215H38.5062Z" fill="#34495E"/>
<path d="M42.5478 29.8361C42.3887 30.8805 40.0324 33.6229 40.0324 33.6229C40.0324 33.6229 38.6021 30.3037 38.7612 29.2593C38.7877 29.0011 38.8664 28.7511 38.9925 28.5243C39.1186 28.2975 39.2894 28.0986 39.4947 27.9397C39.6999 27.7809 39.9353 27.6654 40.1866 27.6001C40.4378 27.5349 40.6997 27.5214 40.9564 27.5604C41.213 27.5993 41.4591 27.69 41.6796 27.8268C41.9002 27.9637 42.0907 28.1439 42.2395 28.3565C42.3883 28.5691 42.4923 28.8097 42.5453 29.0637C42.5983 29.3177 42.5992 29.5798 42.5478 29.8342V29.8361Z" fill="#34495E"/>
<path d="M27.8156 23.4201C28.8739 23.4086 31.9185 21.4577 31.9185 21.4577C31.9185 21.4577 28.8298 19.5796 27.7715 19.5911C27.263 19.597 26.7777 19.8045 26.4222 20.168C26.0668 20.5315 25.8704 21.0213 25.8763 21.5296C25.8821 22.0378 26.0897 22.5229 26.4534 22.8782C26.8171 23.2334 27.3071 23.4297 27.8156 23.4239V23.4201Z" fill="#34495E"/>
<path d="M32.6394 31.1124C33.6441 30.7847 35.9659 28.0136 35.9659 28.0136C35.9659 28.0136 32.4554 27.1455 31.4507 27.4732C31.2028 27.5439 30.9717 27.6639 30.7712 27.8259C30.5708 27.988 30.4051 28.1888 30.284 28.4163C30.163 28.6439 30.0891 28.8935 30.0668 29.1502C30.0445 29.4069 30.0742 29.6655 30.1542 29.9105C30.2342 30.1555 30.3628 30.3818 30.5323 30.576C30.7018 30.7702 30.9087 30.9282 31.1407 31.0406C31.3728 31.1529 31.6251 31.2174 31.8826 31.2301C32.1401 31.2427 32.3975 31.2034 32.6394 31.1143V31.1124Z" fill="#34495E"/>
<path d="M38.3529 37.9462C39.3997 37.7929 42.1567 35.4549 42.1567 35.4549C42.1567 35.4549 38.8437 34.0061 37.7988 34.1594C37.5414 34.186 37.2921 34.2643 37.0658 34.3896C36.8396 34.515 36.641 34.6848 36.4822 34.8889C36.3233 35.093 36.2074 35.3271 36.1414 35.5772C36.0755 35.8272 36.0608 36.088 36.0984 36.3439C36.1359 36.5997 36.2249 36.8453 36.3599 37.0659C36.4949 37.2865 36.6732 37.4774 36.884 37.6273C37.0948 37.7772 37.3338 37.8829 37.5866 37.938C37.8393 37.9932 38.1007 37.9966 38.3548 37.9481L38.3529 37.9462Z" fill="#34495E"/>
<path d="M100.069 143.04C138.401 143.04 169.474 111.981 169.474 73.6675C169.474 35.3539 138.401 4.2946 100.069 4.2946C61.7382 4.2946 30.6646 35.3539 30.6646 73.6675C30.6646 111.981 61.7382 143.04 100.069 143.04Z" fill="url(#paint0_linear)"/>
<path d="M100.069 141.891C137.765 141.891 168.324 111.346 168.324 73.6675C168.324 35.9889 137.765 5.44443 100.069 5.44443C62.3735 5.44443 31.815 35.9889 31.815 73.6675C31.815 111.346 62.3735 141.891 100.069 141.891Z" fill="#34495E"/>
<path d="M100.069 127.901C130.036 127.901 154.328 103.62 154.328 73.6675C154.328 43.7152 130.036 19.434 100.069 19.434C70.1033 19.434 45.811 43.7152 45.811 73.6675C45.811 103.62 70.1033 127.901 100.069 127.901Z" fill="#DDE1EC"/>
<path opacity="0.3" d="M101.603 29.0159H98.5356V76.9254H101.603V29.0159Z" fill="#535461"/>
<g opacity="0.1">
<path opacity="0.1" d="M146.659 72.5177H103.329V76.3504H146.659V72.5177Z" fill="black"/>
<path opacity="0.1" d="M72.7373 58.1782L70.9584 61.5736L98.2221 75.8444L100.001 72.449L72.7373 58.1782Z" fill="black"/>
<path opacity="0.1" d="M100.069 80.1832C103.246 80.1832 105.821 77.6092 105.821 74.4341C105.821 71.2589 103.246 68.6849 100.069 68.6849C96.8928 68.6849 94.3177 71.2589 94.3177 74.4341C94.3177 77.6092 96.8928 80.1832 100.069 80.1832Z" fill="black"/>
</g>
<path d="M146.659 71.7511H103.329V75.5839H146.659V71.7511Z" fill="#535461"/>
<path d="M100.014 71.6869L72.7499 57.4161L70.971 60.8114L98.2347 75.0822L100.014 71.6869Z" fill="#535461"/>
<path d="M100.069 79.4166C103.246 79.4166 105.821 76.8427 105.821 73.6675C105.821 70.4924 103.246 67.9184 100.069 67.9184C96.8928 67.9184 94.3177 70.4924 94.3177 73.6675C94.3177 76.8427 96.8928 79.4166 100.069 79.4166Z" fill="#535461"/>
<g opacity="0.1">
<path opacity="0.1" d="M50.0251 80.1832C50.0251 50.2302 74.3168 25.9497 104.284 25.9497C112.694 25.9422 120.992 27.8924 128.518 31.6458C136.044 35.3991 142.592 40.8526 147.644 47.5741C138.411 30.8019 120.58 19.434 100.066 19.434C70.0988 19.434 45.8072 43.7145 45.8072 73.6675C45.7895 85.4344 49.6182 96.8849 56.7106 106.277C52.3122 98.2831 50.0122 89.3059 50.0251 80.1832Z" fill="black"/>
</g>
<g opacity="0.1">
<path opacity="0.1" d="M121.389 91.3978C121.141 91.6344 120.939 91.9151 120.793 92.2257C119.43 91.6106 117.998 90.8344 117.476 90.547L117.436 90.5259C117.696 90.1985 117.994 89.9033 118.324 89.6463C118.324 89.6463 122.091 90.7846 121.389 91.3978Z" fill="black"/>
</g>
<g opacity="0.1">
<path opacity="0.1" d="M128.842 34.606C128.326 35.2783 127.636 35.7968 126.847 36.1055C126.057 36.4143 125.198 36.5014 124.363 36.3575C124.315 35.3763 124.112 34.3971 123.579 33.7992C122.177 32.2239 128.132 32.4864 128.132 32.4864C128.315 33.2098 128.552 33.9183 128.842 34.606Z" fill="black"/>
</g>
<path opacity="0.05" d="M140 47.7619C140 47.7619 139.3 49.4253 139.649 49.9504L140 47.7619Z" fill="black"/>
<path opacity="0.05" d="M112.064 47.2368C112.064 47.2368 112.415 48.9002 112.064 49.4253V47.2368Z" fill="black"/>
<path d="M184.693 85.1409C184.693 85.1409 176.672 93.159 181.2 105.056C185.729 116.953 173.439 136.737 173.439 136.737C173.439 136.737 173.571 136.718 173.823 136.676C190.298 133.769 198.482 114.937 189.322 100.945C185.907 95.7423 183.112 89.6405 184.693 85.1409Z" fill="#34495E"/>
<path opacity="0.1" d="M184.693 85.275C184.693 85.275 176.672 93.2931 181.2 105.19C185.729 117.087 173.439 136.87 173.439 136.87C173.439 136.87 173.571 136.851 173.823 136.808C190.298 133.901 198.482 115.069 189.322 101.077C185.907 95.8764 183.112 89.7747 184.693 85.275Z" fill="black"/>
<path d="M184.693 85.1409C184.693 85.1409 180.165 94.9681 184.693 102.986C189.222 111.004 185.46 133.505 173.437 136.737" stroke="#535461" stroke-miterlimit="10"/>
<path d="M198.981 117.57C198.981 117.57 189.828 116.113 188.994 124.312C188.16 132.51 171.388 133.646 171.388 133.646L171.702 133.855C185.545 142.939 198.779 139.641 196.784 127.579C196.047 123.097 196.109 118.593 198.981 117.57Z" fill="#34495E"/>
<path d="M198.981 117.57C198.981 117.57 191.875 119.128 192.462 125.586C193.049 132.044 181.917 139.784 171.395 133.648" stroke="#535461" stroke-miterlimit="10"/>
<path d="M190.928 133.945C190.928 133.945 183.719 132.504 181.796 130.582C179.873 128.66 171.223 125.299 170.262 127.707C169.302 130.116 157.286 138.276 165.456 139.717C173.625 141.159 184.68 141.634 187.082 140.676C189.485 139.717 190.928 133.945 190.928 133.945Z" fill="#A8A8A8"/>
<path opacity="0.2" d="M165.456 138.819C173.627 140.26 184.68 140.735 187.082 139.777C188.913 139.045 190.184 135.53 190.687 133.894L190.926 133.943C190.926 133.943 189.485 139.708 187.082 140.668C184.68 141.628 173.625 141.149 165.456 139.71C163.097 139.294 162.423 138.317 162.678 137.08C162.877 137.887 163.699 138.508 165.456 138.819Z" fill="black"/>
</g>
<defs>
<linearGradient id="paint0_linear" x1="100.069" y1="143.04" x2="100.069" y2="4.2946" gradientUnits="userSpaceOnUse">
<stop stop-color="#808080" stop-opacity="0.25"/>
<stop offset="0.54" stop-color="#808080" stop-opacity="0.12"/>
<stop offset="1" stop-color="#808080" stop-opacity="0.1"/>
</linearGradient>
<clipPath id="clip0">
<rect width="199" height="148" fill="white"/>
</clipPath>
</defs>
</svg>
