<svg width="18" height="18" viewBox="0 0 18 18" fill="none" xmlns="http://www.w3.org/2000/svg">
<path d="M6.44 2H3.01C2.43838 2 1.975 2.46339 1.975 3.035V14.965C1.975 15.5366 2.43838 16 3.01 16H6.44C7.01161 16 7.475 15.5366 7.475 14.965V3.035C7.475 2.46339 7.01161 2 6.44 2Z" fill="#F1F1F1"/>
<path d="M14.94 2H11.51C10.9384 2 10.475 2.46339 10.475 3.035V14.965C10.475 15.5366 10.9384 16 11.51 16H14.94C15.5116 16 15.975 15.5366 15.975 14.965V3.035C15.975 2.46339 15.5116 2 14.94 2Z" fill="#F1F1F1"/>
</svg>
