<svg width="18" height="18" viewBox="0 0 18 18" fill="none" xmlns="http://www.w3.org/2000/svg">
<path d="M3.9375 15.75C3.78832 15.75 3.64524 15.6907 3.53975 15.5852C3.43426 15.4798 3.375 15.3367 3.375 15.1875V2.8125C3.37502 2.71475 3.4005 2.61869 3.44895 2.5338C3.4974 2.4489 3.56713 2.3781 3.65127 2.32836C3.73542 2.27862 3.83107 2.25167 3.92881 2.25016C4.02654 2.24865 4.12298 2.27263 4.20862 2.31975L15.4586 8.50725C15.5468 8.5558 15.6204 8.62714 15.6716 8.71381C15.7228 8.80049 15.7498 8.89932 15.7498 9C15.7498 9.10067 15.7228 9.1995 15.6716 9.28618C15.6204 9.37285 15.5468 9.44419 15.4586 9.49275L4.20862 15.6802C4.12557 15.726 4.03231 15.75 3.9375 15.75Z" fill="#F1F1F1"/>
</svg>
