<svg width="22" height="22" viewBox="0 0 22 22" fill="none" xmlns="http://www.w3.org/2000/svg">
<path d="M10.969 14.0859C11.7978 14.0859 12.5926 13.7567 13.1787 13.1706C13.7647 12.5846 14.094 11.7897 14.094 10.9609C14.094 10.1321 13.7647 9.33728 13.1787 8.75123C12.5926 8.16518 11.7978 7.83594 10.969 7.83594C10.1402 7.83594 9.34531 8.16518 8.75926 8.75123C8.17321 9.33728 7.84397 10.1321 7.84397 10.9609C7.84397 11.7897 8.17321 12.5846 8.75926 13.1706C9.34531 13.7567 10.1402 14.0859 10.969 14.0859V14.0859Z" fill="#F1F1F1"/>
<path fill-rule="evenodd" clip-rule="evenodd" d="M11.9065 0.0234375C14.4065 0.179688 16.7502 1.42969 18.469 3.14844C20.5002 5.33594 21.594 7.99219 21.594 11.1172C21.594 13.6172 20.6565 15.9609 19.094 17.9922C17.5315 19.8672 15.344 21.2734 12.844 21.7422C10.344 22.2109 7.84397 21.8984 5.65647 20.6484C3.46897 19.3984 1.75022 17.5234 0.812717 15.1797C-0.124783 12.8359 -0.281033 10.1797 0.500217 7.83594C1.28147 5.33594 2.68772 3.30469 4.87522 1.89844C6.90647 0.492188 9.40647 -0.132813 11.9065 0.0234375ZM12.6877 20.1797C14.719 19.7109 16.594 18.6172 18.0002 16.8984C19.2502 15.1797 20.0315 13.1484 19.8752 10.9609C19.8752 8.46094 18.9377 5.96094 17.219 4.24219C15.6565 2.67969 13.7815 1.74219 11.594 1.58594C9.56272 1.42969 7.37522 1.89844 5.65647 3.14844C3.93772 4.39844 2.68772 6.11719 2.06272 8.30469C1.43772 10.3359 1.43772 12.5234 2.37522 14.5547C3.31272 16.5859 4.71897 18.1484 6.59397 19.2422C8.46897 20.3359 10.6565 20.6484 12.6877 20.1797V20.1797Z" fill="#F1F1F1"/>
</svg>
