<svg width="25" height="25" viewBox="0 0 25 25" fill="none" xmlns="http://www.w3.org/2000/svg">
<path d="M12.5 16.6667C14.2406 16.6667 15.625 15.2802 15.625 13.5417C15.625 11.8031 14.2406 10.4167 12.5 10.4167C10.7594 10.4167 9.375 11.8031 9.375 13.5417C9.375 15.2802 10.7594 16.6667 12.5 16.6667Z" fill="#F1F1F1"/>
<path d="M21.6844 11.6521C21.4389 10.4524 20.9593 9.313 20.2729 8.29895C19.5985 7.30133 18.7393 6.4421 17.7417 5.7677C16.7275 5.08158 15.5881 4.60197 14.3885 4.35625C13.7584 4.22846 13.1169 4.16563 12.474 4.16874V2.08333L8.33333 5.20833L12.474 8.33333V6.25208C12.9781 6.24999 13.4823 6.29791 13.9687 6.39791C14.9011 6.58896 15.7866 6.96167 16.575 7.49479C17.3525 8.019 18.0216 8.68815 18.5458 9.46562C19.3597 10.669 19.7937 12.0889 19.7917 13.5417C19.7915 14.5165 19.5967 15.4816 19.2188 16.3802C19.0349 16.8131 18.8103 17.2274 18.5479 17.6177C18.2845 18.0056 17.9853 18.368 17.6542 18.7C16.6458 19.7064 15.3657 20.3968 13.9708 20.6865C13.0008 20.8823 12.0013 20.8823 11.0312 20.6865C10.0985 20.4952 9.21254 20.1221 8.42396 19.5885C7.64738 19.0648 6.97895 18.3964 6.45521 17.6198C5.64225 16.4151 5.20803 14.995 5.20833 13.5417H3.125C3.12611 15.4101 3.68426 17.2358 4.72812 18.7854C5.40297 19.7814 6.26131 20.6397 7.25729 21.3146C8.80481 22.3619 10.6314 22.9201 12.5 22.9167C13.1347 22.9166 13.7677 22.8527 14.3896 22.726C15.5883 22.4785 16.727 21.999 17.7417 21.3146C18.2399 20.9789 18.7042 20.5955 19.1281 20.1698C19.5526 19.7441 19.9362 19.2796 20.274 18.7823C21.3204 17.2352 21.8782 15.4095 21.875 13.5417C21.8749 12.907 21.8111 12.274 21.6844 11.6521Z" fill="#F1F1F1"/>
</svg>
