<svg width="30" height="30" viewBox="0 0 30 30" fill="none" xmlns="http://www.w3.org/2000/svg">
<path d="M15 6.25C9.48625 6.25 5 10.7363 5 16.25C5 21.7638 9.48625 26.25 15 26.25C20.5138 26.25 25 21.7638 25 16.25C25 10.7363 20.5138 6.25 15 6.25ZM15 23.75C10.8637 23.75 7.5 20.3862 7.5 16.25C7.5 12.1137 10.8637 8.75 15 8.75C19.1362 8.75 22.5 12.1137 22.5 16.25C22.5 20.3862 19.1362 23.75 15 23.75Z" fill="#ECF0F1"/>
<path d="M13.75 11.25H16.25V17.5H13.75V11.25ZM11.25 2.5H18.75V5H11.25V2.5Z" fill="#ECF0F1"/>
<path d="M24.1162 9.63374L21.6162 7.13374L23.3838 5.36624L25.8838 7.86624L24.1162 9.63374Z" fill="#ECF0F1"/>
</svg>
