<svg width="360" height="92" viewBox="0 0 360 92" fill="none" xmlns="http://www.w3.org/2000/svg">
<path fill-rule="evenodd" clip-rule="evenodd" d="M367 2.50015L351.333 13.2309C335.667 23.9617 304.333 45.4231 273 50.1924C241.667 53.7693 210.333 41.8462 179 28.7309C147.667 15.6155 116.333 2.50015 85 0.115543C53.6667 -1.07676 22.3333 7.26938 6.66666 10.8463L-9 15.6155V80H6.66666C22.3333 80 53.6667 80 85 80C116.333 80 147.667 80 179 80C210.333 80 241.667 80 273 80C304.333 80 335.667 80 351.333 80H367V2.50015Z" fill="#DDE1EC"/>
<path fill-rule="evenodd" clip-rule="evenodd" d="M360 18.3751L345 28.5694C330 38.7636 300 59.152 270 63.6828C240 67.0808 210 55.7539 180 43.2943C150 30.8347 120 18.3751 90 16.1098C60 14.9771 30 22.9059 15 26.304L0 30.8347V92H15C30 92 60 92 90 92C120 92 150 92 180 92C210 92 240 92 270 92C300 92 330 92 345 92H360V18.3751Z" fill="#34495E"/>
</svg>
